<svg width="417" height="167" viewBox="0 0 417 167" fill="none" xmlns="http://www.w3.org/2000/svg">
<g clip-path="url(#clip0_16_370)">
<path d="M54.35 47.9V47.13C54.35 42.85 51.68 40.13 47.35 39.94H34.86V61.26H44.58C45.4035 61.2737 46.2213 61.1208 46.9843 60.8104C47.7472 60.5001 48.4395 60.0386 49.0196 59.4539C49.5996 58.8692 50.0555 58.1732 50.3597 57.4078C50.664 56.6424 50.8103 55.8234 50.79 55V54.37H51.51V71.28H50.79V70.64C50.8128 69.823 50.6712 69.0098 50.3736 68.2487C50.076 67.4875 49.6285 66.794 49.0576 66.2091C48.4868 65.6243 47.8042 65.1601 47.0505 64.8442C46.2968 64.5282 45.4872 64.367 44.67 64.37H34.87V82.77C34.891 83.9999 35.3943 85.1724 36.2716 86.0347C37.1489 86.897 38.3299 87.3802 39.56 87.38H40.49V88.11H18.24V87.38H19.16C20.3911 87.3802 21.5731 86.8974 22.452 86.0354C23.3309 85.1733 23.8364 84.0008 23.86 82.77V41.91C23.8029 40.7137 23.2805 39.5871 22.4042 38.7706C21.528 37.9542 20.3673 37.5125 19.17 37.54H18.25V36.81H46.34C49.3042 36.7741 52.249 36.3265 55.09 35.48V47.91L54.35 47.9Z" fill="#C1977F"/>
<path d="M88.5099 96.4401C86.2299 103.71 81.5099 108.26 74.1599 108.26H64.5399V65.4401C64.5635 64.2092 65.0691 63.0368 65.948 62.1747C66.8268 61.3127 68.0088 60.8299 69.2399 60.8301H70.1699V60.1001H57.4599L53.5499 72.7701V106.05C53.5264 107.279 53.0222 108.45 52.1455 109.312C51.2688 110.174 50.0893 110.658 48.8599 110.66H47.9299V111.39H85.8599L89.2399 96.3901L88.5099 96.4401Z" fill="#C1977F"/>
<path d="M66.1728 30.9068L42.1589 108.82L42.7801 109.012L66.794 31.0983L66.1728 30.9068Z" fill="#C1977F"/>
<path d="M50.26 0C36.9351 0.0158788 24.1605 5.31621 14.7384 14.7384C5.31621 24.1605 0.0158788 36.9351 0 50.26L0 116.19C0 129.52 5.29523 142.304 14.7208 151.729C24.1464 161.155 36.9302 166.45 50.26 166.45C63.5898 166.45 76.3736 161.155 85.7992 151.729C95.2248 142.304 100.52 129.52 100.52 116.19V50.26C100.507 36.9343 95.2073 24.1581 85.7846 14.7354C76.3619 5.31272 63.5857 0.013237 50.26 0ZM78.91 140.41C75.608 141.015 72.363 141.898 69.21 143.05C67.2499 142.482 65.2413 142.097 63.21 141.9L63.85 141.62C68.9914 139.257 74.4537 137.666 80.06 136.9C84.5349 136.235 89.0564 135.934 93.58 136C93.03 137.2 92.44 138.36 91.79 139.5C87.4762 139.327 83.1566 139.632 78.91 140.41ZM90.78 141.24C90.06 142.4 89.3 143.54 88.48 144.63C84.6913 144.287 80.8767 144.892 77.38 146.39C75.6172 145.483 73.8004 144.685 71.94 144C78.0201 142.031 84.3915 141.115 90.78 141.29V141.24ZM79.78 135.19C74.0365 135.966 68.4394 137.587 63.17 140C61.5108 140.801 59.7798 141.444 58 141.92C57.43 141.98 56.87 142.05 56.31 142.14L55.88 142.23C54.9458 142.282 54.0089 142.252 53.08 142.14C47.54 141.49 44.08 138.76 40.47 135.86C36.47 132.66 32.28 129.36 25.21 129.1C21.262 129.016 17.3296 129.621 13.59 130.89C11.0103 131.85 8.57425 133.159 6.35 134.78C5.72291 133.303 5.17218 131.794 4.7 130.26C7.39477 128.656 10.2719 127.38 13.27 126.46C17.4156 125.281 21.7102 124.708 26.02 124.76C33.26 125.05 37.37 128.25 41.34 131.35C45.14 134.35 49.06 137.35 55.53 137.79C55.96 137.79 56.37 137.79 56.77 137.79C59.84 137.79 61.77 136.98 64.49 135.79C68.677 133.974 73.0309 132.571 77.49 131.6L78.49 131.39C84.2831 130.119 90.1749 129.35 96.1 129.09C95.6047 130.828 95.0139 132.537 94.33 134.21C89.4708 134.116 84.6125 134.444 79.81 135.19H79.78ZM22.78 136.89C27.7054 135.601 32.8372 135.298 37.88 136C38.39 136.39 38.88 136.8 39.41 137.2C42.69 139.81 46.08 142.5 51.06 143.54C49.42 144.12 47.83 144.8 46.26 145.54C40.9386 141.572 34.325 139.738 27.72 140.4C22.4919 140.993 17.5623 143.143 13.57 146.57C12.5001 145.27 11.4988 143.915 10.57 142.51C14.2962 139.94 18.4415 138.038 22.82 136.89H22.78ZM9.58 141.05C8.65898 139.544 7.82106 137.988 7.07 136.39C9.24533 134.771 11.6391 133.468 14.18 132.52C17.7278 131.353 21.4454 130.785 25.18 130.84C28.7058 130.938 32.1315 132.034 35.06 134C26.029 133.427 17.068 135.91 9.62 141.05H9.58ZM42 129.64C43.3263 129.823 44.6616 129.933 46 129.97C50.3154 129.997 54.6037 129.287 58.68 127.87C62.01 126.87 64.89 125.98 68.48 126.49C71.4818 126.975 74.3126 128.21 76.71 130.08C72.2865 131.075 67.9647 132.478 63.8 134.27C60.8 135.52 59.06 136.27 55.63 136.05C49.7 135.68 46.15 132.91 42.4 129.98L42 129.64ZM2.61 50.26C2.79136 37.7407 7.89193 25.7955 16.8093 17.0064C25.7266 8.21736 37.7444 3.29034 50.265 3.29034C62.7856 3.29034 74.8034 8.21736 83.7207 17.0064C92.6381 25.7955 97.7386 37.7407 97.92 50.26V116.19C97.9164 119.974 97.4632 123.743 96.57 127.42C90.6434 127.66 84.7467 128.39 78.94 129.6C76.069 127.07 72.5453 125.396 68.77 124.77C64.77 124.21 61.6 125.18 58.22 126.21C54.3201 127.576 50.2121 128.253 46.08 128.21C43.8007 128.16 41.5323 127.879 39.31 127.37L39.26 127.57C35.4515 124.737 30.8647 123.141 26.12 123C21.6152 122.934 17.1257 123.541 12.8 124.8C9.8142 125.718 6.94244 126.973 4.24 128.54C3.15665 124.513 2.6086 120.36 2.61 116.19V50.26ZM14.71 147.88C18.7934 144.351 23.9387 142.288 29.3287 142.018C34.7188 141.748 40.0445 143.287 44.46 146.39L43.46 146.88C41.98 147.59 40.52 148.28 39.06 148.88C35.924 147.205 32.4151 146.352 28.8603 146.399C25.3054 146.446 21.8204 147.393 18.73 149.15L17.36 149.93L18.75 150.68C20.1893 151.447 21.7084 152.054 23.28 152.49C24.9842 152.956 26.7432 153.191 28.51 153.19C34.19 153.19 39.26 150.77 44.2 148.41C48.03 146.58 51.98 144.7 56.2 143.91C56.8997 143.855 57.5947 143.752 58.28 143.6C65.6 142.88 73.69 145.49 82.35 151.36C81.1383 152.468 79.8699 153.513 78.55 154.49C72.93 150.3 67.29 148.17 61.76 148.17H61.7C57.01 148.17 53.49 149.68 49.4 151.4C44.6884 153.554 39.7218 155.1 34.62 156C31.5995 156.515 28.5437 156.796 25.48 156.84C21.4711 154.396 17.8425 151.377 14.71 147.88ZM36.85 149.8C32.69 151.36 28.46 152.15 23.7 150.8C22.8063 150.555 21.9308 150.247 21.08 149.88C23.5494 148.742 26.2323 148.143 28.951 148.12C31.6697 148.098 34.3622 148.653 36.85 149.75V149.8ZM77 155.59C75.5899 156.553 74.1277 157.438 72.62 158.24C69.3888 156.006 65.6331 154.648 61.72 154.3C57.8 154.02 54.93 155 51.29 156.25C48.6396 157.191 45.9428 157.995 43.21 158.66C39.5957 159.513 35.9161 160.062 32.21 160.3C30.8908 159.765 29.5991 159.164 28.34 158.5C30.5278 158.364 32.7072 158.117 34.87 157.76C40.1183 156.826 45.2261 155.226 50.07 153C54.14 151.28 57.36 149.92 61.7 149.91C66.75 150 71.88 151.85 77 155.59ZM50.22 163.85C45.4047 163.852 40.6169 163.124 36.02 161.69C38.5728 161.384 41.1067 160.936 43.61 160.35C46.3994 159.68 49.1501 158.859 51.85 157.89C55.44 156.66 58.03 155.78 61.59 156.03C64.8733 156.317 68.0392 157.391 70.82 159.16C64.394 162.254 57.3522 163.857 50.22 163.85ZM83.59 150.18C82.15 149.187 80.7267 148.287 79.32 147.48C81.8285 146.594 84.4817 146.191 87.14 146.29C86.041 147.649 84.8693 148.948 83.63 150.18H83.59Z" fill="#C1977F"/>
<path d="M142.9 47.5001H140.39V69.0001H142.7C149.613 69.0001 154.117 68.5701 156.21 67.7101H156.34V71.7101H156.21C153.937 70.6768 149.433 70.1601 142.7 70.1601H140.39V93.1601H133.82V46.3401H159.69L160.52 50.3401H160.4C154.762 48.4407 148.85 47.4813 142.9 47.5001Z" fill="#2B2B2B"/>
<path d="M167.86 52.8999L163.48 48.5299L167.86 44.1499L172.23 48.5299L167.86 52.8999ZM164.86 93.1799V59.9999L170.65 58.2699H170.91V93.1799H164.86Z" fill="#2B2B2B"/>
<path d="M198 58.76L196.2 63.52C195.088 63.0137 193.881 62.7512 192.66 62.75C190.969 62.7526 189.327 63.3153 187.99 64.35C186.518 65.4759 185.357 66.9595 184.62 68.66V93.18H178.5V60L184.23 58.27H184.49V66.8C185.475 64.3934 187.018 62.2548 188.99 60.56C190.668 59.1431 192.794 58.3671 194.99 58.37C196.006 58.3758 197.017 58.5068 198 58.76Z" fill="#2B2B2B"/>
<path d="M198.74 90.0901L199.74 86.8101C201.174 88.5543 202.984 89.9521 205.034 90.8993C207.084 91.8464 209.322 92.3184 211.58 92.2801C213.758 92.3875 215.907 91.7373 217.66 90.4401C218.387 89.8876 218.973 89.1712 219.371 88.3493C219.769 87.5274 219.968 86.6231 219.95 85.7101C219.94 84.9198 219.766 84.1402 219.439 83.4207C219.112 82.7011 218.639 82.0574 218.05 81.5301C216.172 80.1809 214.129 79.0785 211.97 78.2501L209.33 77.1601C207.624 76.4522 205.955 75.6579 204.33 74.7801C201.07 72.7801 199.44 70.1701 199.44 66.8601C199.42 65.5525 199.71 64.2587 200.287 63.0852C200.864 61.9117 201.712 60.892 202.76 60.1101C205.253 58.2587 208.308 57.3261 211.41 57.4701C215.293 57.3717 219.133 58.3032 222.54 60.1701L221.64 63.1701C220.26 61.6736 218.59 60.4737 216.732 59.6434C214.873 58.813 212.865 58.3696 210.83 58.3401C208.898 58.2257 206.99 58.8154 205.46 60.0001C204.824 60.5015 204.312 61.1433 203.965 61.8754C203.618 62.6075 203.445 63.41 203.46 64.2201C203.438 65.3964 203.851 66.5393 204.62 67.4301C205.298 68.2067 206.103 68.8627 207 69.3701C208.473 70.136 209.985 70.8236 211.53 71.4301L214.11 72.5201C215.792 73.1782 217.426 73.9534 219 74.8401C222.333 76.8401 224 79.5634 224 83.0101C224.03 84.4249 223.726 85.8269 223.113 87.1022C222.499 88.3776 221.594 89.4903 220.47 90.3501C218.11 92.2301 214.913 93.1734 210.88 93.1801C208.634 93.1731 206.397 92.891 204.22 92.3401C202.28 91.9034 200.427 91.1427 198.74 90.0901Z" fill="#2B2B2B"/>
<path d="M247.83 89.3801L248.34 90.1501C245.706 92.0246 242.572 93.0693 239.34 93.1501C233.76 93.1501 230.97 90.2101 230.97 84.3301V59.6601H226V58.5601L230.7 58.2401L236.81 47.3101H237.06V58.2401H248.06L247.22 59.6601H237.08V84.2301C237.058 85.8425 237.368 87.4424 237.99 88.9301C238.663 90.3101 240.1 91.0001 242.3 91.0001C244.255 90.961 246.163 90.4019 247.83 89.3801Z" fill="#2B2B2B"/>
<path d="M286.38 85.24L289.97 88.24V93.15H289.8L284.2 88.41C281.533 91.2833 277.867 92.72 273.2 92.72C270.486 92.8316 267.812 92.0364 265.6 90.46C264.65 89.7791 263.88 88.8768 263.357 87.8313C262.835 86.7858 262.575 85.6286 262.6 84.46C262.6 80.7 264.933 77.8533 269.6 75.92C267.13 73.39 265.89 70.85 265.89 68.32C265.868 67.2898 266.068 66.2669 266.477 65.3212C266.886 64.3754 267.494 63.5291 268.26 62.84C269.823 61.3767 271.899 60.5865 274.04 60.64C276.076 60.5927 278.061 61.2815 279.63 62.58C280.366 63.1441 280.961 63.8711 281.369 64.7039C281.777 65.5367 281.986 66.4527 281.98 67.38C282.006 68.2293 281.84 69.0734 281.494 69.8493C281.147 70.6252 280.63 71.3126 279.98 71.86C278.596 73.0259 276.981 73.8848 275.24 74.38L274.77 73.96C277.67 72.6267 279.12 70.5333 279.12 67.68C279.205 65.9912 278.676 64.3288 277.63 63C277.172 62.4247 276.587 61.963 275.921 61.6508C275.255 61.3386 274.525 61.1843 273.79 61.2C273.068 61.1674 272.349 61.3053 271.691 61.6023C271.032 61.8994 270.453 62.3474 270 62.91C269.124 63.9804 268.656 65.327 268.68 66.71C268.676 68.151 269.139 69.5546 270 70.71C271.17 72.1974 272.513 73.5402 274 74.71L285.91 84.79C286.76 82.8069 287.182 80.6672 287.15 78.51C287.112 76.6875 286.628 74.902 285.74 73.31L287.83 72.49H288V77.66C288.049 80.2775 287.495 82.8711 286.38 85.24ZM283.69 88L272.38 78.44C271.55 77.76 270.76 77.06 269.99 76.35C268.806 77.0575 267.839 78.0753 267.192 79.2933C266.545 80.5113 266.243 81.883 266.32 83.26C266.274 84.3655 266.457 85.4686 266.858 86.4997C267.26 87.5307 267.871 88.4673 268.653 89.2501C269.435 90.033 270.37 90.6452 271.401 91.0479C272.432 91.4507 273.535 91.6352 274.64 91.59C276.314 91.6461 277.982 91.3563 279.539 90.7386C281.097 90.1209 282.51 89.1886 283.69 88Z" fill="#2B2B2B"/>
<path d="M331.06 88.3501H331.18L330 93.1801H307.57V46.3401H314.14V92.0001H315.36C320.791 91.8935 326.139 90.6501 331.06 88.3501Z" fill="#2B2B2B"/>
<path d="M364.32 90.9999V91.3799C362.738 92.4171 360.892 92.9793 359 92.9999C355.87 92.9999 354.17 91.4199 353.92 88.2399C350.756 91.3996 346.481 93.1944 342.01 93.2399C339.623 93.3436 337.284 92.5438 335.46 90.9999C334.65 90.2856 334.009 89.3999 333.583 88.4071C333.158 87.4143 332.959 86.3392 333 85.2599C332.993 83.8374 333.342 82.4358 334.017 81.1833C334.691 79.9307 335.669 78.8672 336.86 78.0899C339.43 76.2199 342.99 75.0899 347.54 74.5799L351.4 74.1999L353.84 73.9999V70.3399C353.84 66.7799 353.197 64.1132 351.91 62.3399C350.623 60.5666 348.523 59.6866 345.61 59.6999C342.046 59.8025 338.636 61.1791 336 63.5799L335.42 62.8699C337.136 61.2097 339.125 59.8567 341.3 58.8699C343.425 58.0013 345.704 57.5694 348 57.5999C356 57.5999 360 61.6532 360 69.7599V86.2299C359.897 87.5586 360.074 88.894 360.52 90.1499C360.86 90.7999 361.74 91.1499 363.16 91.1499C363.22 91.1199 363.63 91.0799 364.32 90.9999ZM353.83 86.9999V74.9999C348.81 75.5599 345.09 76.5366 342.67 77.9299C341.526 78.527 340.575 79.4354 339.926 80.5501C339.276 81.6649 338.955 82.9406 339 84.2299C338.943 85.1204 339.068 86.0131 339.367 86.8537C339.667 87.6944 340.134 88.4654 340.74 89.1199C341.343 89.706 342.059 90.1627 342.845 90.462C343.631 90.7612 344.47 90.8966 345.31 90.8599C348.33 90.8599 351.17 89.5732 353.83 86.9999Z" fill="#2B2B2B"/>
<path d="M366.31 90.0901L367.31 86.8101C368.743 88.553 370.552 89.95 372.6 90.8971C374.648 91.8441 376.884 92.3169 379.14 92.2801C381.318 92.3875 383.467 91.7373 385.22 90.4401C385.949 89.8893 386.537 89.1732 386.935 88.3509C387.333 87.5286 387.53 86.6235 387.51 85.7101C387.502 84.9195 387.328 84.1393 387.001 83.4195C386.674 82.6997 386.2 82.0562 385.61 81.5301C383.732 80.1809 381.689 79.0785 379.53 78.2501L376.89 77.1601C375.31 76.5101 373.63 75.7201 371.89 74.7801C368.63 72.7801 367 70.1701 367 66.8601C366.98 65.5525 367.27 64.2587 367.847 63.0852C368.424 61.9117 369.272 60.892 370.32 60.1101C372.813 58.2587 375.869 57.3261 378.97 57.4701C382.853 57.3717 386.694 58.3032 390.1 60.1701L389.2 63.1701C387.82 61.6736 386.15 60.4737 384.292 59.6434C382.433 58.813 380.425 58.3696 378.39 58.3401C376.451 58.2207 374.536 58.8108 373 60.0001C372.365 60.503 371.855 61.1452 371.508 61.8769C371.161 62.6087 370.988 63.4104 371 64.2201C370.979 65.3964 371.392 66.5393 372.16 67.4301C372.83 68.2005 373.624 68.8529 374.51 69.3601C375.984 70.124 377.496 70.8116 379.04 71.4201L381.62 72.5101C383.302 73.1682 384.936 73.9434 386.51 74.8301C389.843 76.8301 391.51 79.5534 391.51 83.0001C391.539 84.4157 391.234 85.8183 390.618 87.0937C390.003 88.3691 389.096 89.4813 387.97 90.3401C385.61 92.2201 382.413 93.1634 378.38 93.1701C376.134 93.1631 373.897 92.881 371.72 92.3301C369.805 91.8891 367.976 91.1321 366.31 90.0901Z" fill="#2B2B2B"/>
<path d="M415.4 89.3801L415.91 90.1501C413.276 92.0246 410.142 93.0693 406.91 93.1501C401.33 93.1501 398.54 90.2101 398.54 84.3301V59.6601H393.54V58.5601L398.24 58.2401L404.35 47.3101H404.61V58.2401H415.61L414.77 59.6601H404.66V84.2301C404.64 85.8414 404.946 87.4403 405.56 88.9301C406.227 90.2967 407.663 90.9834 409.87 90.9901C411.824 90.957 413.734 90.401 415.4 89.3801Z" fill="#2B2B2B"/>
<path d="M133.84 107.06H135.24L138.63 120H138.75L142.14 107.11H143.72L147.12 120H147.23L150.63 107.11H152L147.89 122.11H146.43L143 109.34H142.91L139.43 122.05H138L133.84 107.06Z" fill="#2B2B2B"/>
<path d="M159 107.06H167.69V108.29H160.37V113.93H167.23V115.16H160.37V120.82H167.84V122.05H159V107.06Z" fill="#2B2B2B"/>
<path d="M175.64 107.06H177V120.82H184.14V122.05H175.63L175.64 107.06Z" fill="#2B2B2B"/>
<path d="M191.69 107.06H193.06V120.82H200.2V122.05H191.69V107.06Z" fill="#2B2B2B"/>
<path d="M219.41 122.05H218.07L209.22 109.5H209.1V122.05H207.74V107.05H209.06L217.94 119.61H218.06V107.06H219.41V122.05Z" fill="#2B2B2B"/>
<path d="M227.84 107.06H236.53V108.29H229.21V113.93H236.07V115.16H229.21V120.82H236.68V122.05H227.84V107.06Z" fill="#2B2B2B"/>
<path d="M249.09 108.08C247 108.08 245.56 109.26 245.56 110.87C245.56 112.48 247.09 113.19 248.56 113.6L250.14 114.05C252.04 114.58 254.21 115.58 254.21 118.05C254.21 120.52 252.26 122.28 249.01 122.28C245.96 122.28 244.01 120.65 243.86 118.28H245.27C245.41 120.06 247 121.03 249.01 121.03C251.25 121.03 252.89 119.82 252.89 118.03C252.89 116.5 251.61 115.81 249.75 115.27L247.96 114.74C245.61 114.05 244.25 112.84 244.25 110.91C244.25 108.5 246.38 106.84 249.15 106.84C251.92 106.84 253.9 108.52 254 110.84H252.68C252.49 109.14 251.07 108.08 249.09 108.08Z" fill="#2B2B2B"/>
<path d="M266.51 108.08C264.42 108.08 262.98 109.26 262.98 110.87C262.98 112.48 264.51 113.19 265.98 113.6L267.56 114.05C269.47 114.58 271.63 115.58 271.63 118.05C271.63 120.52 269.69 122.28 266.44 122.28C263.38 122.28 261.44 120.65 261.29 118.28H262.69C262.84 120.06 264.42 121.03 266.44 121.03C268.68 121.03 270.31 119.82 270.31 118.03C270.31 116.5 269.03 115.81 267.18 115.27L265.38 114.74C263.03 114.05 261.67 112.84 261.67 110.91C261.67 108.5 263.8 106.84 266.57 106.84C269.34 106.84 271.32 108.52 271.43 110.84H270.1C269.91 109.14 268.49 108.08 266.51 108.08Z" fill="#2B2B2B"/>
<path d="M300 111.74C299.781 110.702 299.204 109.773 298.371 109.115C297.538 108.458 296.501 108.113 295.44 108.14C292.6 108.14 290.29 110.4 290.29 114.55C290.29 118.7 292.6 120.96 295.44 120.96C296.502 120.992 297.541 120.648 298.375 119.99C299.209 119.331 299.784 118.4 300 117.36H301.37C301.141 118.755 300.413 120.019 299.323 120.918C298.232 121.817 296.853 122.291 295.44 122.25C291.65 122.25 288.96 119.25 288.96 114.55C288.96 109.85 291.65 106.86 295.44 106.86C296.851 106.819 298.23 107.291 299.32 108.188C300.41 109.085 301.138 110.347 301.37 111.74H300Z" fill="#2B2B2B"/>
<path d="M314.84 122.25C311.05 122.25 308.36 119.25 308.36 114.55C308.36 109.85 311.05 106.86 314.84 106.86C318.63 106.86 321.32 109.86 321.32 114.55C321.32 119.24 318.63 122.25 314.84 122.25ZM314.84 108.14C311.9 108.14 309.69 110.51 309.69 114.55C309.69 118.59 311.87 120.96 314.84 120.96C317.81 120.96 320 118.58 319.99 114.55C319.98 110.52 317.79 108.14 314.84 108.14Z" fill="#2B2B2B"/>
<path d="M330.66 107.06L336.1 120.06H336.23L341.67 107.06H343.25V122.06H342V110H341.88L336.88 122.1H335.63L330.49 110H330.37V122.1H329.08V107.1L330.66 107.06Z" fill="#2B2B2B"/>
<path d="M351.68 107.06H356.52C359.71 107.06 361.34 109.06 361.34 111.69C361.34 114.32 359.71 116.32 356.54 116.32H353.05V122.05H351.68V107.06ZM356.5 115.06C357.402 115.06 358.266 114.702 358.904 114.064C359.542 113.427 359.9 112.562 359.9 111.66C359.9 110.758 359.542 109.894 358.904 109.256C358.266 108.618 357.402 108.26 356.5 108.26H353.07V115.06H356.5Z" fill="#2B2B2B"/>
<path d="M366.09 122.05L371.54 107.05H373L378.45 122.05H377L375.4 117.53H369.1L367.5 122.05H366.09ZM375 116.3L372.34 108.84H372.24L369.58 116.3H375Z" fill="#2B2B2B"/>
<path d="M397.15 122.05H395.82L387 109.5H386.89V122.05H385.52V107.05H386.84L395.72 119.61H395.84V107.06H397.19L397.15 122.05Z" fill="#2B2B2B"/>
<path d="M405.76 107.06L410.2 114.17H410.33L414.77 107.06H416.35L410.95 115.56V122.05H409.58V115.56L404.18 107.06H405.76Z" fill="#2B2B2B"/>
</g>
<defs>
<clipPath id="clip0_16_370">
<rect width="416.35" height="166.45" fill="white"/>
</clipPath>
</defs>
</svg>
